<svg width="198" height="63" viewBox="0 0 198 63" fill="none" xmlns="http://www.w3.org/2000/svg">
<path d="M7.32211 43.6906C4.71639 53.9593 7.99456 62.9655 19.174 62.9655C31.8664 62.9655 42.2893 50.7609 45.8196 38.5563H32.8751C32.1186 41.6705 30.5215 47.2257 27.8317 51.2659C25.9825 54.0435 23.2927 56.5686 20.771 56.5686C18.2494 56.5686 18.6696 53.2018 19.258 50.9292L25.1419 27.9509H45.2312L47.3326 20.0389H27.0752L30.9418 4.55168L15.1393 12.0428L13.3741 20.0389H2.61499L0.597656 27.9509H11.3568L7.32211 43.6906ZM198 38.5563H184.803C183.458 44.364 177.574 56.4003 173.288 56.4003C170.262 56.4003 171.102 52.8651 171.859 50.0033L179.34 20.0389H151.265L148.827 29.8026H163.201L159.671 43.6906C157.065 53.9593 160.007 62.9655 171.186 62.9655C183.038 62.9655 193.377 52.6968 198 38.5563ZM166.899 8.676C166.899 13.2212 170.766 15.6621 175.473 15.6621C180.432 15.6621 184.803 12.7161 184.803 7.75013C184.803 3.1208 180.853 0.595703 176.23 0.595703C171.102 0.595703 166.899 3.54164 166.899 8.676ZM149.164 20.0389H133.025L120.248 35.1053L114.785 20.0389H100.663L111.591 40.1555L89.9884 62.208H106.127L119.66 45.7949L125.208 62.208H138.909L128.15 40.1555L149.164 20.0389ZM97.8056 20.0389H86.5421L82.3393 29.6343C81.835 23.2374 77.6322 19.1972 70.7396 19.1972C62.3341 19.1972 54.4328 26.9408 50.3141 35.2736C46.6997 42.3439 44.8505 54.1277 49.8098 59.767C51.743 62.0396 54.5169 62.9655 57.711 62.9655C62.3341 62.9655 66.9571 61.6188 71.1599 57.242C73.4294 54.8852 77.5481 49.9192 80.2379 44.4481L78.5568 62.208H87.2986L97.8056 20.0389ZM63.9311 54.9694C60.737 54.9694 59.8124 52.5284 59.8124 49.33C59.8124 46.1315 60.5689 42.8489 62.0819 39.398C63.5949 35.947 65.5282 33.0011 67.7977 30.7285C70.0672 28.4559 72.2526 27.1933 74.4381 27.1933C77.7163 27.1933 80.2379 29.8026 80.0698 34.5161C78.0525 40.1555 73.6816 47.3099 70.7396 50.7609C68.5542 53.3701 65.9485 54.9694 63.9311 54.9694Z" fill="black"/>
</svg>
